<?xml version="1.0" standalone="no"?>
<!DOCTYPE svg PUBLIC "-//W3C//DTD SVG 20010904//EN"
 "http://www.w3.org/TR/2001/REC-SVG-20010904/DTD/svg10.dtd">
<svg version="1.0" xmlns="http://www.w3.org/2000/svg"
 width="213.000000pt" height="214.000000pt" viewBox="0 0 213.000000 214.000000"
 preserveAspectRatio="xMidYMid meet">

<g transform="translate(0.000000,214.000000) scale(0.100000,-0.100000)"
fill="#000000" stroke="none">
<path d="M0 1070 l0 -1070 1065 0 1065 0 0 1070 0 1070 -1065 0 -1065 0 0
-1070z m1053 893 c-3 -7 -11 -13 -18 -13 -17 0 -26 25 -13 38 13 13 38 -7 31
-25z m-113 -8 c0 -18 -22 -24 -36 -11 -8 7 -8 14 0 22 13 14 36 7 36 -11z
m224 -10 c-6 -15 -44 -8 -41 9 3 18 20 26 34 15 6 -6 10 -16 7 -24z m-414 -14
c0 -16 -7 -34 -15 -41 -13 -11 -15 -8 -15 13 0 32 9 57 21 57 5 0 9 -13 9 -29z
m588 -9 c2 -18 -1 -32 -6 -32 -12 0 -22 24 -22 52 0 32 25 15 28 -20z m-645
-4 c7 -25 -10 -61 -24 -53 -16 11 -7 75 11 75 4 0 10 -10 13 -22z m703 -3 c7
-30 -2 -59 -16 -50 -13 8 -13 75 0 75 5 0 12 -11 16 -25z m-555 -4 c-6 -10
-31 -26 -56 -34 -101 -35 -230 -149 -293 -259 -17 -29 -42 -87 -57 -128 -18
-52 -24 -63 -20 -35 23 141 156 324 293 402 26 14 56 34 67 44 17 15 39 24 68
28 4 0 3 -8 -2 -18z m448 -10 c3 -5 33 -25 66 -44 79 -46 163 -127 214 -207
40 -62 92 -200 90 -243 0 -12 -9 11 -19 52 -49 185 -190 352 -348 411 -52 20
-71 34 -72 52 0 9 62 -9 69 -21z m-654 -21 c3 -16 2 -37 -3 -46 -9 -16 -11
-15 -22 5 -12 24 -6 71 9 71 5 0 12 -13 16 -30z m823 -4 c4 -34 -12 -56 -29
-39 -14 14 -1 75 14 70 7 -2 13 -16 15 -31z m-868 -58 c0 -15 -4 -28 -10 -28
-17 0 -31 39 -24 66 7 26 8 26 20 9 8 -11 14 -31 14 -47z m914 -6 c-5 -15 -14
-27 -19 -27 -15 0 -18 51 -4 77 l12 23 10 -23 c7 -15 7 -33 1 -50z m-684 39
c0 -11 -25 -21 -51 -21 -19 0 -25 11 -12 23 10 10 63 8 63 -2z m488 -8 c6 -19
-43 -16 -59 3 -11 14 -9 15 21 12 18 -2 35 -9 38 -15z m-773 -33 c16 -31 12
-70 -6 -70 -15 0 -31 51 -24 77 7 30 11 29 30 -7z m1019 -37 c-5 -15 -14 -28
-21 -30 -20 -7 -25 35 -7 69 17 33 17 33 27 10 7 -15 7 -32 1 -49z m-808 32
c-32 -24 -84 -17 -59 8 3 4 22 7 42 7 34 -1 35 -2 17 -15z m632 -2 c2 -8 -5
-13 -16 -13 -28 0 -52 10 -52 22 0 14 63 5 68 -9z m-878 -90 c0 -34 -18 -36
-35 -4 -16 32 -20 63 -8 74 10 10 43 -44 43 -70z m1110 45 c0 -18 -9 -44 -19
-58 l-19 -25 -7 27 c-5 18 -1 37 11 57 23 40 34 39 34 -1z m-915 12 c8 -13
-44 -33 -64 -25 -14 6 -13 8 3 21 23 16 52 18 61 4z m726 -1 c21 -11 17 -29
-5 -29 -8 0 -24 9 -37 20 l-24 19 23 1 c13 0 32 -5 43 -11z m-961 -115 c0 -13
-4 -24 -9 -24 -17 0 -41 44 -41 75 l1 30 24 -28 c14 -15 25 -39 25 -53z m180
66 c0 -12 -33 -30 -54 -30 -24 0 -19 19 7 30 30 12 47 12 47 0z m844 -11 c16
-15 -3 -23 -31 -13 -39 13 -44 39 -7 30 16 -4 33 -12 38 -17z m172 -11 c-6
-32 -32 -68 -48 -68 -16 0 -8 42 15 70 29 38 41 37 33 -2z m-1233 -98 c2 -10
1 -23 -3 -29 -12 -20 -60 38 -60 72 l0 31 29 -28 c16 -15 31 -36 34 -46z m167
50 c-10 -19 -56 -38 -66 -27 -14 14 29 45 64 46 10 1 10 -4 2 -19z m939 -5 c8
-8 12 -17 8 -21 -12 -12 -56 6 -68 27 -10 20 -9 21 17 15 16 -4 35 -14 43 -21z
m167 -34 c-9 -17 -25 -35 -36 -41 -18 -10 -20 -8 -20 19 0 35 62 97 68 68 2
-9 -4 -29 -12 -46z m-1136 -20 c0 -16 -34 -49 -57 -56 -42 -12 -26 37 17 54
32 13 40 13 40 2z m985 -5 c24 -11 35 -21 35 -36 0 -17 -4 -20 -22 -15 -24 7
-58 40 -58 56 0 12 5 11 45 -5z m-1154 -63 c12 -32 12 -33 -5 -33 -22 0 -66
51 -66 77 l0 24 31 -21 c17 -13 35 -33 40 -47z m1344 22 c-17 -34 -51 -63 -62
-51 -13 13 10 56 39 74 18 12 34 19 36 17 2 -2 -4 -20 -13 -40z m-774 -162
c44 -73 83 -133 87 -133 4 0 45 68 92 149 47 82 88 146 91 143 4 -4 16 -86 28
-182 28 -216 29 -220 55 -230 14 -6 -7 -9 -64 -9 -54 -1 -80 3 -71 8 12 8 13
26 2 122 -7 63 -14 115 -15 117 -5 4 -119 -197 -132 -231 -10 -30 -11 -29 -84
97 -41 69 -77 126 -80 126 -4 0 -12 -48 -18 -107 -9 -78 -9 -110 -1 -120 9
-11 2 -13 -42 -12 -41 0 -49 2 -32 9 14 6 23 21 27 47 9 53 46 345 46 363 1
22 18 -3 111 -157z m-438 107 c-3 -11 -19 -32 -37 -47 l-31 -26 -4 24 c-2 17
6 31 30 51 35 30 50 29 42 -2z m1070 -8 c10 -11 17 -31 15 -44 -3 -23 -3 -23
-36 9 -35 35 -46 81 -14 64 9 -5 25 -18 35 -29z m-1228 -25 c25 -35 20 -48
-15 -35 -31 10 -60 42 -60 65 0 18 57 -4 75 -30z m1415 35 c0 -27 -82 -93 -98
-78 -12 13 20 58 51 71 37 16 47 18 47 7z m-1434 -103 c21 -17 17 -29 -10 -29
-14 0 -38 12 -53 26 l-28 26 38 -6 c22 -3 45 -10 53 -17z m150 -14 c-3 -8 -15
-15 -27 -15 l-22 0 24 26 c23 24 37 19 25 -11z m1114 -12 c0 -22 -45 3 -48 27
-4 22 -4 22 22 4 14 -11 26 -24 26 -31z m190 42 c0 -15 -48 -45 -72 -45 -30 0
-36 11 -15 28 18 15 87 29 87 17z m-1393 -27 c-3 -8 -6 -5 -6 6 -1 11 2 17 5
13 3 -3 4 -12 1 -19z m203 -478 c0 -5 -4 -10 -10 -10 -5 0 -10 5 -10 10 0 6 5
10 10 10 6 0 10 -4 10 -10z m107 -6 c8 -20 -9 -76 -25 -82 -16 -5 -35 46 -27
75 6 27 42 32 52 7z m667 10 c21 -8 21 -53 0 -83 -21 -29 -34 -13 -34 40 0 46
6 54 34 43z m90 -6 c-3 -4 -9 -8 -15 -8 -5 0 -9 4 -9 8 0 5 7 9 15 9 8 0 12
-4 9 -9z m-664 -99 c0 -56 -11 -60 -42 -18 -15 19 -17 34 -12 73 l7 49 24 -27
c17 -21 23 -39 23 -77z m495 52 c8 -51 -21 -111 -47 -95 -23 14 6 134 31 134
5 0 12 -18 16 -39z m-783 18 c20 -11 20 -12 -8 -30 -31 -20 -108 -26 -119 -9
-7 11 61 49 88 50 10 0 28 -5 39 -11z m1109 -9 c22 -12 37 -25 34 -30 -11 -17
-88 -11 -119 9 -26 18 -27 20 -10 30 28 16 50 13 95 -9z m-190 -40 c-61 -56
-168 -112 -256 -135 -67 -17 -207 -20 -284 -5 -68 13 -206 79 -251 119 l-35
32 50 -34 c75 -52 128 -76 212 -98 194 -49 420 1 559 126 27 24 51 44 54 44 3
0 -19 -22 -49 -49z m-836 -34 c18 -13 17 -15 -15 -35 -36 -22 -94 -27 -120
-11 -17 11 -16 12 35 39 46 24 74 26 100 7z m956 -8 c42 -24 47 -33 23 -42
-31 -12 -77 -6 -112 16 -32 20 -33 22 -16 35 26 19 61 16 105 -9z m-867 -54
c24 -9 19 -21 -21 -49 -38 -25 -123 -36 -123 -15 0 5 19 23 42 40 40 29 70 36
102 24z m783 -28 c23 -18 40 -36 36 -40 -14 -14 -87 -5 -118 14 -36 23 -50 46
-32 54 34 13 74 4 114 -28z m-672 -16 c4 -6 -11 -29 -33 -50 -32 -32 -47 -40
-77 -40 l-36 0 21 30 c42 59 107 90 125 60z m540 -21 c20 -18 40 -40 46 -50 9
-17 6 -19 -27 -19 -29 0 -44 8 -76 40 -22 21 -37 44 -33 50 12 20 55 10 90
-21z m-287 -68 c-4 -31 -35 -36 -52 -8 -9 14 -7 21 7 32 27 19 49 8 45 -24z
m-172 -8 c-10 -10 -19 5 -10 18 6 11 8 11 12 0 2 -7 1 -15 -2 -18z m74 12 c0
-8 -7 -15 -15 -15 -8 0 -15 7 -15 15 0 8 7 15 15 15 8 0 15 -7 15 -15z m175 4
c10 -15 -1 -23 -20 -15 -9 3 -13 10 -10 16 8 13 22 13 30 -1z m59 -10 c-3 -5
-10 -7 -15 -3 -5 3 -7 10 -3 15 3 5 10 7 15 3 5 -3 7 -10 3 -15z m-899 -43
c47 -20 78 -70 71 -116 -5 -35 -45 -80 -69 -80 -7 0 -3 6 8 12 32 17 45 39 45
78 0 96 -134 136 -202 60 -23 -25 -28 -40 -28 -81 0 -27 7 -63 15 -79 12 -24
13 -28 1 -24 -38 15 -49 128 -17 180 35 57 109 78 176 50z m1621 -11 c80 -52
85 -164 11 -251 l-26 -31 38 -18 c22 -9 54 -21 72 -25 l34 -8 -37 -1 c-21 -1
-62 8 -91 19 -43 16 -60 18 -81 10 -84 -31 -205 2 -371 101 -127 76 -169 94
-250 109 -47 9 -46 9 25 6 87 -3 135 -23 279 -115 51 -33 116 -68 144 -77 50
-17 146 -22 167 -9 7 4 -24 28 -71 57 -123 74 -155 88 -228 104 l-66 14 69 -6
c74 -5 143 -32 265 -104 68 -39 74 -41 95 -26 29 18 66 92 66 129 0 73 -52
127 -122 127 -45 0 -78 -19 -101 -57 -37 -64 11 -140 71 -114 25 11 26 10 8
-4 -28 -22 -53 -19 -81 10 -50 49 -24 138 49 171 37 17 97 12 132 -11z m-1065
-96 c-67 -11 -112 -31 -233 -103 -129 -75 -157 -71 -38 6 126 82 189 108 265
107 l60 -1 -54 -9z m152 -40 l39 -20 36 23 c26 16 51 22 97 22 70 0 129 -25
310 -128 104 -61 148 -80 205 -89 24 -4 24 -4 -3 -6 -44 -2 -133 34 -235 95
-184 110 -264 132 -347 95 -38 -17 -46 -24 -40 -38 25 -62 26 -71 10 -104 -14
-32 -15 -32 -10 -5 7 31 -11 96 -26 96 -18 0 -38 -62 -28 -87 5 -14 5 -23 -1
-23 -5 0 -13 12 -16 27 -6 24 -3 37 21 96 6 14 -2 21 -41 38 -73 33 -124 22
-279 -56 -139 -70 -139 -61 0 18 137 79 220 91 308 46z m-458 6 c-76 -15 -101
-26 -184 -75 -70 -42 -81 -46 -81 -31 0 32 213 121 285 120 37 -1 36 -2 -20
-14z m-270 -43 c-3 -3 -11 0 -18 7 -9 10 -8 11 6 5 10 -3 15 -9 12 -12z m655
-47 c11 -13 7 -15 -23 -15 -28 0 -40 -6 -57 -30 -25 -35 -40 -32 -32 5 9 48
84 74 112 40z m310 -7 c21 -23 26 -63 10 -88 -8 -12 -10 -10 -10 10 0 14 -6
33 -14 42 -16 22 -61 39 -83 32 -16 -5 -15 -3 1 10 28 23 72 20 96 -6z m853
-105 c-7 -2 -21 -2 -30 0 -10 3 -4 5 12 5 17 0 24 -2 18 -5z"/>
</g>
</svg>
